<svg width="272" height="116" viewBox="0 0 272 116" fill="none" xmlns="http://www.w3.org/2000/svg">
<path d="M259.715 74.9646V74.9359C262.584 70.2306 266.687 67.8779 271.995 67.8779V77.3459H270.933C267.691 77.3459 265.023 78.2353 262.9 80.0141C260.776 81.793 259.715 84.7194 259.715 88.7936V101.59H250.763V68.2796H259.715V74.9646Z" fill="white"/>
<path d="M228.958 102.25L228.844 102.307C223.048 102.307 218.486 100.758 215.187 97.6303C211.887 94.503 210.223 90.2855 210.223 84.9777C210.223 82.166 210.74 79.6412 211.744 77.3746C212.748 75.108 214.096 73.2718 215.76 71.8946C217.425 70.5175 219.261 69.4559 221.24 68.7386C223.22 68.0214 225.257 67.6484 227.352 67.6484C232.43 67.6484 236.533 69.2264 239.66 72.3824C242.787 75.5384 244.365 79.9855 244.365 85.6949C244.365 86.7852 244.308 87.7607 244.193 88.6214H219.318C219.806 90.3716 220.896 91.8635 222.589 93.0972C224.282 94.3309 226.548 94.9334 229.389 94.9334C230.881 94.9334 232.315 94.6752 233.721 94.1587C235.127 93.6423 236.131 93.1546 236.733 92.6955L237.68 91.9209L242.443 96.454C242.328 96.5975 242.156 96.7983 241.927 97.0565C241.697 97.3147 241.152 97.7738 240.32 98.4624C239.488 99.151 238.598 99.7535 237.652 100.27C236.705 100.786 235.442 101.245 233.864 101.647C232.286 102.049 230.651 102.25 228.958 102.25ZM227.323 75.3949C224.884 75.3949 222.962 76.1122 221.527 77.5754C220.093 79.0387 219.347 80.7601 219.261 82.7398H235.127C235.098 80.7601 234.41 79.0387 233.032 77.5754C231.655 76.1122 229.762 75.3949 227.323 75.3949Z" fill="white"/>
<path d="M195.046 68.2796H203.94V99.4092C203.94 104.574 202.391 108.504 199.292 111.23C196.193 113.955 191.632 115.304 185.578 115.304C179.381 115.304 174.159 113.812 169.884 110.799L173.298 104.545C176.856 106.754 180.7 107.844 184.832 107.844C191.603 107.844 194.988 104.803 194.988 98.7493V97.5156C192.492 100.614 188.82 102.163 183.971 102.135C179.639 102.135 176.081 100.557 173.298 97.4008C170.515 94.2448 169.138 90.0846 169.138 84.9203C169.138 79.7559 170.544 75.5671 173.327 72.3824C176.11 69.1977 179.667 67.6197 184 67.6197C188.906 67.6197 192.578 69.1977 195.046 72.325V68.2796ZM186.783 94.1301L186.84 94.1014C189.451 94.1014 191.488 93.2406 192.951 91.5192C194.415 89.7977 195.161 87.5885 195.161 84.8629C195.161 82.1373 194.443 79.9281 193.009 78.2353C191.574 76.5426 189.508 75.6818 186.84 75.6818C184.172 75.6818 182.049 76.5426 180.471 78.264C178.893 79.9855 178.118 82.1947 178.118 84.8916C178.118 87.5598 178.922 89.769 180.5 91.5192C182.078 93.2693 184.172 94.1301 186.783 94.1301Z" fill="white"/>
<path d="M154.62 101.59L154.563 97.8025C152.468 100.758 149.054 102.221 144.32 102.192C140.504 102.192 137.463 101.303 135.168 99.4952C132.873 97.6877 131.725 95.1342 131.725 91.8061C131.725 88.4493 133.073 85.8097 135.799 83.9161C138.525 82.0225 141.709 81.0757 145.353 81.0757C148.366 81.0757 151.35 81.5061 154.305 82.3668C154.419 77.5467 151.923 75.1367 146.845 75.1367C144.808 75.1367 142.742 75.3949 140.619 75.9114C138.496 76.4278 136.832 76.9729 135.627 77.5467L133.446 71.0339C138.18 68.7673 143.087 67.6197 148.136 67.6197C153.3 67.6197 157.116 68.8821 159.584 71.4069C162.051 73.9317 163.285 77.7763 163.285 82.9119V101.59H154.62ZM146.874 95.7941L146.845 95.8228C148.968 95.8228 150.747 95.3064 152.182 94.3022C153.616 93.298 154.333 91.8348 154.333 89.9412V87.732C152.239 86.986 150.001 86.6131 147.62 86.6131C145.64 86.6131 143.976 87.0147 142.627 87.8181C141.279 88.6214 140.619 89.7404 140.619 91.1749C140.619 92.6094 141.222 93.7284 142.398 94.5604C143.574 95.3925 145.066 95.7941 146.874 95.7941Z" fill="white"/>
<path d="M113.478 67.6197L113.392 67.5336C117.093 67.5336 120.077 68.8247 122.343 71.4069C124.61 73.9891 125.757 77.4607 125.757 81.8504V101.532H116.834V83.1989C116.834 80.8175 116.203 78.9526 114.912 77.6328C113.621 76.313 111.9 75.6532 109.748 75.6532C107.424 75.6532 105.53 76.3704 104.038 77.805C102.546 79.2395 101.8 81.0757 101.8 83.3136V101.59H92.8489V68.2796H101.8V73.2718C105.473 69.5133 109.375 67.6197 113.478 67.6197Z" fill="white"/>
<path d="M76.4091 101.59L76.3517 97.8025C74.2573 100.758 70.8431 102.221 66.1091 102.192C62.2932 102.192 59.252 101.303 56.9567 99.4952C54.6614 97.6877 53.5138 95.1342 53.5138 91.8061C53.5138 88.4493 54.8623 85.8097 57.5879 83.9161C60.3135 82.0225 63.4982 81.0757 67.1419 81.0757C70.1545 81.0757 73.1383 81.5061 76.0935 82.3668C76.2083 77.5467 73.7122 75.1367 68.6339 75.1367C66.5968 75.1367 64.5311 75.3949 62.408 75.9114C60.2848 76.4278 58.6208 76.9729 57.4157 77.5467L55.2352 71.0339C59.9692 68.7673 64.8754 67.6197 69.925 67.6197C75.0893 67.6197 78.9052 68.8821 81.3726 71.4069C83.84 73.9317 85.0737 77.7763 85.0737 82.9119V101.59H76.4091ZM68.6626 95.7941L68.6339 95.8228C70.757 95.8228 72.5358 95.3064 73.9704 94.3022C75.4049 93.298 76.1222 91.8348 76.1222 89.9412V87.732C74.0278 86.986 71.7899 86.6131 69.4085 86.6131C67.4289 86.6131 65.7648 87.0147 64.4163 87.8181C63.0678 88.6214 62.408 89.7404 62.408 91.1749C62.408 92.6094 63.0105 93.7284 64.1868 94.5604C65.3631 95.3925 66.855 95.7941 68.6626 95.7941Z" fill="white"/>
<path d="M46.8288 58.5821V101.59H37.5043V73.903L25.3968 94.3596H22.3268L10.1619 73.8456V101.59H0.894775V58.5821H10.994L23.8475 79.9568L36.7296 58.5821H46.8288Z" fill="white"/>
<path d="M127.766 28.2457L139.672 46.2922H129.286L121.884 35.5332L114.052 46.2922H106.592V0.702478H115.601V30.8279L128.512 12.9822H138.697L127.766 28.2457Z" fill="white"/>
<path d="M86.996 47.1817L87.1681 47.153C81.2578 47.153 76.2369 45.661 72.1341 42.6772L75.3475 36.853C76.8394 37.8284 78.6756 38.6318 80.8274 39.2917C82.9792 39.9516 84.9589 40.2672 86.7664 40.2672C90.238 40.2672 91.9882 39.2917 91.9882 37.3407C91.9882 36.3652 91.5004 35.5906 90.5249 34.988C89.5494 34.3855 88.3444 33.9552 86.9099 33.7257C85.4753 33.4961 83.926 33.1518 82.2333 32.7215C80.5405 32.2911 78.9625 31.7747 77.4993 31.1722C76.0361 30.5697 74.831 29.5655 73.8842 28.1596C72.9374 26.7538 72.4497 25.0036 72.4497 22.9379C72.4497 19.5811 73.7121 16.9702 76.2369 15.134C78.7617 13.2978 81.9464 12.3797 85.7909 12.3797C90.8405 12.3797 95.1155 13.556 98.6444 15.9086L95.8327 21.905C92.6481 20.0975 89.3486 19.2081 85.9344 19.2081C82.6923 19.2081 81.0569 20.2123 81.0569 22.1919C81.0569 23.2535 81.7168 24.0568 83.0366 24.602C84.3564 25.1471 85.9631 25.5774 87.8567 25.893C89.7503 26.2086 91.6439 26.639 93.5375 27.1841C95.4311 27.7293 97.0378 28.7908 98.3575 30.3688C99.6773 31.9468 100.337 34.0126 100.337 36.566C100.337 39.9229 99.1322 42.5337 96.7222 44.3987C94.3121 46.2636 91.0701 47.1817 86.996 47.1817Z" fill="white"/>
<path d="M57.674 46.2922L57.6166 42.5051C55.5222 45.4602 52.108 46.9234 47.374 46.8948C43.5581 46.8948 40.5169 46.0053 38.2216 44.1978C35.9263 42.3903 34.7787 39.8368 34.7787 36.5087C34.7787 33.1518 36.1272 30.5123 38.8528 28.6187C41.5784 26.7251 44.7631 25.7783 48.4068 25.7783C51.4194 25.7783 54.4032 26.2086 57.3584 27.0694C57.4732 22.2493 54.977 19.8393 49.8988 19.8393C47.8617 19.8393 45.796 20.0975 43.6729 20.6139C41.5497 21.1304 39.8857 21.6755 38.6806 22.2493L36.5001 15.7365C41.2341 13.4699 46.1403 12.3223 51.1899 12.3223C56.3542 12.3223 60.1701 13.5847 62.6375 16.1095C65.1049 18.6343 66.3386 22.4788 66.3386 27.6145V46.2922H57.674ZM49.9275 40.4967L49.8988 40.5254C52.0219 40.5254 53.8007 40.0089 55.2353 39.0048C56.6698 38.0006 57.3871 36.5374 57.3871 34.6438V32.4346C55.2926 31.6886 53.0548 31.3156 50.6734 31.3156C48.6937 31.3156 47.0297 31.7173 45.6812 32.5206C44.3327 33.324 43.6729 34.4429 43.6729 35.8775C43.6729 37.312 44.2754 38.431 45.4517 39.263C46.628 40.095 48.1199 40.4967 49.9275 40.4967Z" fill="white"/>
<path d="M34.4918 11.3181H22.3842V46.2922H13.0597V11.3181H0.894775V3.28466H34.4918V11.3181Z" fill="white"/>
</svg>
